<svg xmlns="http://www.w3.org/2000/svg" xmlns:xlink="http://www.w3.org/1999/xlink" viewBox="0 0 171.75 171.72"><defs><style>.cls-1{fill:#575770;}.cls-2{fill:url(#linear-gradient);}.cls-3{fill:url(#linear-gradient-2);}.cls-4{fill:url(#linear-gradient-3);}.cls-5{fill:url(#linear-gradient-4);}</style><linearGradient id="linear-gradient" x1="2.83" y1="-326.43" x2="168.87" y2="-281.94" gradientTransform="matrix(1, 0, 0, -1, 0, -218.28)" gradientUnits="userSpaceOnUse"><stop offset="0" stop-color="#9a87fe"/><stop offset="0.14" stop-color="#9387fd"/><stop offset="0.15" stop-color="#8d87fc"/><stop offset="0.28" stop-color="#6486f4"/><stop offset="0.38" stop-color="#4b86ef"/><stop offset="0.44" stop-color="#4286ed"/><stop offset="0.69" stop-color="#4286ed"/><stop offset="0.82" stop-color="#22bacf"/><stop offset="0.94" stop-color="#09e1b8"/><stop offset="1" stop-color="#00f0af"/></linearGradient><linearGradient id="linear-gradient-2" x1="503.05" y1="1842.64" x2="500.05" y2="1766.62" gradientTransform="matrix(1, 0.05, -0.05, 1, -388.6, -1746.23)" gradientUnits="userSpaceOnUse"><stop offset="0.01" stop-color="#8a80ff" stop-opacity="0"/><stop offset="0.27" stop-color="#656dd6" stop-opacity="0.33"/><stop offset="0.74" stop-color="#194883"/></linearGradient><linearGradient id="linear-gradient-3" x1="1205.63" y1="-8992.92" x2="1185.33" y2="-9053.9" gradientTransform="matrix(-0.45, -0.89, 0.89, -0.45, 8727.65, -2828.49)" gradientUnits="userSpaceOnUse"><stop offset="0.17" stop-color="#00c4a7" stop-opacity="0"/><stop offset="0.38" stop-color="#07a19d" stop-opacity="0.29"/><stop offset="0.83" stop-color="#194883"/></linearGradient><linearGradient id="linear-gradient-4" x1="10173.99" y1="-2475.84" x2="10149.53" y2="-2535.51" gradientTransform="translate(3441.65 -9897.13) rotate(122.39)" gradientUnits="userSpaceOnUse"><stop offset="0.25" stop-color="#4286ed" stop-opacity="0"/><stop offset="0.34" stop-color="#3a7ad8" stop-opacity="0.2"/><stop offset="0.57" stop-color="#285faa" stop-opacity="0.63"/><stop offset="0.74" stop-color="#1d4e8e" stop-opacity="0.9"/><stop offset="0.83" stop-color="#194883"/></linearGradient></defs><title>360_icn</title><g id="Layer_2" data-name="Layer 2"><g id="Layer_1-2" data-name="Layer 1"><path class="cls-1" d="M69.23,85a5.67,5.67,0,0,1,4.27,5.64c0,4.2-3.35,6.69-9.16,6.69-5.39,0-8.47-2.66-8.47-5a2.49,2.49,0,0,1,3-2.39c.71,2.32,2.76,3.52,5.46,3.52s4.37-1.2,4.37-3.15-1.3-3-3.93-3H63.59c-1.67,0-2.35-.62-2.35-1.71v-.28c0-1.16.78-1.7,2.28-1.7h1.64c2,0,3.15-1,3.15-2.56,0-1.75-1.51-2.8-4-2.8a4.91,4.91,0,0,0-5,3.17A2.45,2.45,0,0,1,56.42,79c0-2.32,3.07-4.67,7.92-4.67,5.6,0,8.71,2.15,8.71,6C73.05,82.7,71.72,84.27,69.23,85Z"/><path class="cls-1" d="M86.85,82.84c4.44,0,7.41,2.39,7.41,6.62v.17c0,4.54-3.59,7.72-8.74,7.72-6.08,0-9.6-4.13-9.6-10.38V85c0-6.59,3.79-10.62,9.94-10.62,4.88,0,7.51,2,7.51,4.27,0,1.94-2.39,2.32-2.46,2.21a5.26,5.26,0,0,0-4.71-2.49c-3.52,0-5.33,2.19-5.33,6.49V85A9,9,0,0,1,86.85,82.84ZM85.41,93.56c2.33,0,4-1.44,4-3.59V89.8c0-2.22-1.43-3.45-4-3.45A6.83,6.83,0,0,0,81,88.23C81.14,91.58,82.72,93.56,85.41,93.56Z"/><path class="cls-1" d="M96.51,87V84.78c0-6.38,3.69-10.41,9.7-10.41s9.66,4,9.66,10.38v2.18c0,6.39-3.65,10.42-9.69,10.42S96.51,93.39,96.51,87Zm14.31.31V84.44c0-3.89-1.67-6-4.64-6s-4.58,2.08-4.58,6v2.83c0,3.89,1.64,6,4.61,6S110.82,91.17,110.82,87.28Z"/><path id="SVGID" class="cls-2" d="M90.17.1a85.86,85.86,0,1,0,81.46,90.05h0C174.11,42.84,137.48,2.58,90.17.1ZM137.86,101c-7.44,24.42-24.23,46.17-36.82,49.23s-37.2-9-54.75-27.29-28-43.11-23.85-56.28c3.62-11.44,25.76-28,50.56-34s51.89-1.34,60.47,7.25c9.35,9.15,11.64,36.43,4.39,61Z"/><path class="cls-3" d="M41.9,117.81A104,104,0,0,1,27,94.35a51.33,51.33,0,0,1-2.86-7.63v-.19c-2.48-7.64-3.06-14.69-1.53-20,1.91-5.91,8-11.25,7.82-11.25C17.67,67.64,6,88.81,3.93,111.14l38,6.67Z"/><path class="cls-4" d="M135.57,108.47v-.77c-3.62,10.3-17.93,38.73-34.91,42.74a32.91,32.91,0,0,1-13-1l2.29.58c16.78,5.15,37.77,4,58.37-5.16Z"/><path class="cls-5" d="M104.86,2.58,80.06,31.2a99.48,99.48,0,0,1,36.05.76h.19c8,1.91,14.5,4.39,18.13,8.59A27.8,27.8,0,0,1,140,52,96.83,96.83,0,0,0,104.86,2.58Z"/></g></g></svg>